<svg width="1920" height="600" viewBox="0 0 1920 600" xmlns="http://www.w3.org/2000/svg">
  <defs>
    <!-- Gradientes otimizados -->
    <linearGradient id="skyGradient" x1="0%" y1="0%" x2="0%" y2="100%">
      <stop offset="0%" style="stop-color:#87CEEB;stop-opacity:1" />
      <stop offset="50%" style="stop-color:#B0E0E6;stop-opacity:1" />
      <stop offset="100%" style="stop-color:#E0F6FF;stop-opacity:1" />
    </linearGradient>
    
    <linearGradient id="cityGradient" x1="0%" y1="0%" x2="0%" y2="100%">
      <stop offset="0%" style="stop-color:#2D3748;stop-opacity:1" />
      <stop offset="50%" style="stop-color:#4A5568;stop-opacity:1" />
      <stop offset="100%" style="stop-color:#718096;stop-opacity:1" />
    </linearGradient>
    
    <linearGradient id="shieldGradient" x1="0%" y1="0%" x2="0%" y2="100%">
      <stop offset="0%" style="stop-color:#FF6B35;stop-opacity:1" />
      <stop offset="50%" style="stop-color:#FF8A65;stop-opacity:1" />
      <stop offset="100%" style="stop-color:#FFB74D;stop-opacity:1" />
    </linearGradient>
  </defs>
  
  <!-- Fundo do céu -->
  <rect width="1920" height="400" fill="url(#skyGradient)"/>
  
  <!-- Nuvens simplificadas -->
  <g opacity="0.6">
    <ellipse cx="200" cy="80" rx="60" ry="25" fill="#FFFFFF"/>
    <ellipse cx="500" cy="60" rx="70" ry="30" fill="#FFFFFF"/>
    <ellipse cx="800" cy="90" rx="65" ry="28" fill="#FFFFFF"/>
    <ellipse cx="1200" cy="70" rx="60" ry="25" fill="#FFFFFF"/>
    <ellipse cx="1600" cy="85" rx="70" ry="30" fill="#FFFFFF"/>
  </g>
  
  <!-- Silhueta da cidade simplificada -->
  <g fill="url(#cityGradient)">
    <!-- Prédios principais -->
    <rect x="0" y="300" width="80" height="300"/>
    <rect x="70" y="250" width="90" height="350"/>
    <rect x="150" y="280" width="70" height="320"/>
    <rect x="210" y="200" width="100" height="400"/>
    <rect x="300" y="320" width="85" height="280"/>
    <rect x="375" y="180" width="120" height="420"/>
    <rect x="485" y="300" width="90" height="300"/>
    <rect x="565" y="220" width="110" height="380"/>
    <rect x="665" y="350" width="75" height="250"/>
    <rect x="730" y="150" width="140" height="450"/>
    <rect x="860" y="280" width="95" height="320"/>
    <rect x="945" y="200" width="105" height="400"/>
    <rect x="1040" y="320" width="80" height="280"/>
    <rect x="1110" y="180" width="130" height="420"/>
    <rect x="1230" y="300" width="90" height="300"/>
    <rect x="1310" y="250" width="100" height="350"/>
    <rect x="1400" y="280" width="85" height="320"/>
    <rect x="1475" y="200" width="120" height="400"/>
    <rect x="1585" y="320" width="90" height="280"/>
    <rect x="1665" y="180" width="110" height="420"/>
    <rect x="1765" y="300" width="80" height="300"/>
    <rect x="1835" y="250" width="85" height="350"/>
  </g>
  
  <!-- Janelas dos prédios principais -->
  <g fill="#FFD700" opacity="0.7">
    <!-- Prédio principal -->
    <rect x="230" y="220" width="10" height="15"/>
    <rect x="250" y="220" width="10" height="15"/>
    <rect x="270" y="220" width="10" height="15"/>
    <rect x="290" y="220" width="10" height="15"/>
    <rect x="230" y="250" width="10" height="15"/>
    <rect x="250" y="250" width="10" height="15"/>
    <rect x="270" y="250" width="10" height="15"/>
    <rect x="290" y="250" width="10" height="15"/>
    
    <!-- Prédio alto -->
    <rect x="750" y="170" width="8" height="12"/>
    <rect x="770" y="170" width="8" height="12"/>
    <rect x="790" y="170" width="8" height="12"/>
    <rect x="810" y="170" width="8" height="12"/>
    <rect x="750" y="200" width="8" height="12"/>
    <rect x="770" y="200" width="8" height="12"/>
    <rect x="790" y="200" width="8" height="12"/>
    <rect x="810" y="200" width="8" height="12"/>
  </g>
  
  <!-- Ícone de segurança central -->
  <g transform="translate(960, 200)">
    <path d="M -40 -30 L 0 -50 L 40 -30 L 40 20 L 0 40 L -40 20 Z" fill="url(#shieldGradient)" opacity="0.9"/>
    <path d="M -30 -20 L 0 -35 L 30 -20 L 30 15 L 0 30 L -30 15 Z" fill="#FFFFFF" opacity="0.8"/>
    <circle cx="0" cy="0" r="12" fill="#1A365D"/>
    <path d="M -6 -2 L -2 2 L 6 -8" stroke="#FFFFFF" stroke-width="2" fill="none" stroke-linecap="round"/>
  </g>
  
  <!-- Ícones de segurança laterais -->
  <g transform="translate(400, 150)" opacity="0.7">
    <circle cx="0" cy="0" r="15" fill="url(#shieldGradient)"/>
    <path d="M -5 -2 L -2 1 L 5 -6" stroke="#FFFFFF" stroke-width="1.5" fill="none" stroke-linecap="round"/>
  </g>
  
  <g transform="translate(1500, 180)" opacity="0.7">
    <circle cx="0" cy="0" r="15" fill="url(#shieldGradient)"/>
    <path d="M -5 -2 L -2 1 L 5 -6" stroke="#FFFFFF" stroke-width="1.5" fill="none" stroke-linecap="round"/>
  </g>
  
  <!-- Linhas de conexão -->
  <g stroke="#FF6B35" stroke-width="2" opacity="0.4" fill="none">
    <path d="M 400 150 Q 600 100 800 120 Q 1000 140 1200 160 Q 1400 180 1500 180"/>
  </g>
  
  <!-- Overlay gradiente para contraste -->
  <rect width="1920" height="600" fill="linear-gradient(135deg, rgba(0,0,0,0.1) 0%, rgba(0,0,0,0.3) 100%)" opacity="0.3"/>
</svg>















